<?xml version="1.0" encoding="UTF-8"?>
<svg width="26px" height="20px" viewBox="0 0 26 20" version="1.1" xmlns="http://www.w3.org/2000/svg" xmlns:xlink="http://www.w3.org/1999/xlink">
    <!-- Generator: Sketch 50.2 (55047) - http://www.bohemiancoding.com/sketch -->
    <title>Shape</title>
    <desc>Created with Sketch.</desc>
    <defs></defs>
    <g id="Page-1" stroke="none" stroke-width="1" fill="none" fill-rule="evenodd">
        <path d="M25.974364,3.872725 C25.974364,3.454198 25.806953,3.03567 25.505613,2.734331 L23.228825,0.457542 C22.927485,0.156203 22.508958,-0.011208 22.090431,-0.011208 C21.671903,-0.011208 21.253376,0.156203 20.952036,0.457542 L9.96988,11.456439 L5.047999,6.517817 C4.74666,6.216478 4.328133,6.049067 3.909605,6.049067 C3.491078,6.049067 3.072551,6.216478 2.771211,6.517817 L0.494423,8.794606 C0.193083,9.095945 0.025672,9.514473 0.025672,9.933 C0.025672,10.351527 0.193083,10.770054 0.494423,11.071394 L6.554698,17.131669 L8.831486,19.408458 C9.132826,19.709797 9.551353,19.877208 9.96988,19.877208 C10.388408,19.877208 10.806935,19.709797 11.108275,19.408458 L13.385063,17.131669 L25.505613,5.011119 C25.806953,4.709779 25.974364,4.291252 25.974364,3.872725 Z" id="Shape" fill="#61A534" fill-rule="nonzero"></path>
    </g>
</svg>