<?xml version="1.0" encoding="UTF-8" standalone="no"?>
<svg width="31px" height="23px" viewBox="0 0 31 23" version="1.1" xmlns="http://www.w3.org/2000/svg" xmlns:xlink="http://www.w3.org/1999/xlink">
    <!-- Generator: Sketch 3.7.2 (28276) - http://www.bohemiancoding.com/sketch -->
    <title>icon-twitter</title>
    <desc>Created with Sketch.</desc>
    <defs></defs>
    <g id="popup" stroke="none" stroke-width="1" fill="none" fill-rule="evenodd">
        <g id="iPhone-6" transform="translate(-35.000000, -567.000000)" fill="#0B9CDA">
            <g id="Group-4" transform="translate(35.000000, 563.000000)">
                <path d="M27.1079262,10.2280046 C27.1206871,10.4663457 27.1254724,10.7076293 27.1254724,10.9459704 C27.1254724,18.2874655 21.0688446,26.7500466 9.99400479,26.7500466 C6.5916379,26.7500466 3.42853731,25.8305207 0.763110646,24.2533498 C1.23526283,24.3048433 1.71379544,24.3313256 2.19870849,24.3313256 C5.02205092,24.3313256 7.6172928,23.4426957 9.67657815,21.9552706 C7.04305366,21.9096621 4.817877,20.3060089 4.05222482,18.0991466 C4.41909982,18.16241 4.79714059,18.1962485 5.18475201,18.1962485 C5.73506452,18.1962485 6.26783083,18.1300427 6.77188518,18.0035159 C4.01713243,17.4915239 1.94189599,15.2478806 1.94189599,12.5555086 L1.94189599,12.4863603 C2.75380632,12.9027216 3.68375471,13.1528327 4.66953189,13.1822575 C3.05368676,12.1847558 1.98974925,10.4869431 1.98974925,8.55814547 C1.98974925,7.54151759 2.28643947,6.58668186 2.80644491,5.7657291 C5.77494223,9.12751593 10.2141298,11.3373207 15.2179858,11.5697768 C15.1158989,11.1622429 15.0632603,10.7399966 15.0632603,10.3030379 C15.0632603,7.2369706 17.7573989,4.75204371 21.0832006,4.75204371 C22.8154887,4.75204371 24.3802903,5.42440107 25.4793202,6.50429233 C26.8495186,6.25418128 28.1383664,5.79221145 29.3027958,5.15663512 C28.8529751,6.45279888 27.897505,7.54151759 26.6549153,8.22858737 C27.8735784,8.09323315 29.0316273,7.79751361 30.113111,7.35466992 C29.305986,8.46987098 28.2851164,9.44677533 27.1079262,10.2280046 L27.1079262,10.2280046 Z" id="icon-twitter"></path>
            </g>
        </g>
    </g>
</svg>