<?xml version="1.0" encoding="UTF-8" standalone="no"?>
<svg width="20px" height="16px" viewBox="0 0 20 16" version="1.1" xmlns="http://www.w3.org/2000/svg" xmlns:xlink="http://www.w3.org/1999/xlink">
    <!-- Generator: Sketch 3.7.2 (28276) - http://www.bohemiancoding.com/sketch -->
    <title>icon-twitter-small</title>
    <desc>Created with Sketch.</desc>
    <defs></defs>
    <g id="popup" stroke="none" stroke-width="1" fill="none" fill-rule="evenodd">
        <path d="M17.8559096,4.23248801 C17.8646052,4.39490104 17.8678661,4.55931917 17.8678661,4.72173219 C17.8678661,9.72445451 13.7406922,15.4911196 6.19395304,15.4911196 C3.87547478,15.4911196 1.72003999,14.8645261 -0.0962643539,13.789793 C0.225474777,13.8248822 0.551561733,13.8429281 0.881996516,13.8429281 C2.80590956,13.8429281 4.57438782,13.2373882 5.97764869,12.2238106 C4.18308347,12.1927315 2.66677912,11.0999525 2.14503999,9.59612816 C2.39503999,9.63923779 2.65264869,9.66229643 2.91677912,9.66229643 C3.29177912,9.66229643 3.6548226,9.6171817 3.99830086,9.53096244 C2.12112695,9.18207519 0.706996516,7.65318711 0.706996516,5.81852142 L0.706996516,5.77140159 C1.26025739,6.05512311 1.89395304,6.22555654 2.56569217,6.24560753 C1.46460521,5.56587893 0.739605211,4.40893673 0.739605211,3.09459426 C0.739605211,2.40183251 0.941779124,1.75117784 1.29612695,1.19175519 C3.31895304,3.48258094 6.34395304,4.98841038 9.75373565,5.14681321 C9.68417043,4.86910698 9.64830086,4.58137526 9.64830086,4.28361804 C9.64830086,2.19430475 11.4841704,0.500998541 13.7504748,0.500998541 C14.9309096,0.500998541 15.9972139,0.95916369 16.746127,1.69503507 C17.6798226,1.52460164 18.5580835,1.20980108 19.3515617,0.77669967 C19.04504,1.65994583 18.393953,2.40183251 17.5472139,2.87002315 C18.3776487,2.77778859 19.1667791,2.57627613 19.9037356,2.27450871 C19.3537356,3.03444128 18.6580835,3.70013419 17.8559096,4.23248801 L17.8559096,4.23248801 Z" id="icon-twitter-small" fill="#0B9CDA"></path>
    </g>
</svg>