<?xml version="1.0" encoding="UTF-8" standalone="no"?>
<svg width="21px" height="21px" viewBox="0 0 21 21" version="1.1" xmlns="http://www.w3.org/2000/svg" xmlns:xlink="http://www.w3.org/1999/xlink">
    <!-- Generator: Sketch 3.7.2 (28276) - http://www.bohemiancoding.com/sketch -->
    <title>icon-close</title>
    <desc>Created with Sketch.</desc>
    <defs></defs>
    <g id="tweet-a-rep" stroke="none" stroke-width="1" fill="none" fill-rule="evenodd">
        <g id="iPhone-6" transform="translate(-237.000000, -25.000000)" fill="#61A534">
            <path d="M250.539219,31.6464844 L247.949219,34.2364844 L245.359219,31.6464844 L243.949219,33.0564844 L246.539219,35.6464844 L243.949219,38.2364844 L245.359219,39.6464844 L247.949219,37.0564844 L250.539219,39.6464844 L251.949219,38.2364844 L249.359219,35.6464844 L251.949219,33.0564844 L250.539219,31.6464844 L250.539219,31.6464844 Z M247.949219,25.6464844 C242.419219,25.6464844 237.949219,30.1164844 237.949219,35.6464844 C237.949219,41.1764844 242.419219,45.6464844 247.949219,45.6464844 C253.479219,45.6464844 257.949219,41.1764844 257.949219,35.6464844 C257.949219,30.1164844 253.479219,25.6464844 247.949219,25.6464844 L247.949219,25.6464844 Z M247.949219,43.6464844 C243.539219,43.6464844 239.949219,40.0564844 239.949219,35.6464844 C239.949219,31.2364844 243.539219,27.6464844 247.949219,27.6464844 C252.359219,27.6464844 255.949219,31.2364844 255.949219,35.6464844 C255.949219,40.0564844 252.359219,43.6464844 247.949219,43.6464844 L247.949219,43.6464844 Z" id="icon-close"></path>
        </g>
    </g>
</svg>