<?xml version="1.0" encoding="UTF-8"?>
<svg width="21px" height="21px" viewBox="0 0 21 21" version="1.1" xmlns="http://www.w3.org/2000/svg" xmlns:xlink="http://www.w3.org/1999/xlink">
    <!-- Generator: Sketch 50.2 (55047) - http://www.bohemiancoding.com/sketch -->
    <title>Shape</title>
    <desc>Created with Sketch.</desc>
    <defs></defs>
    <g id="Page-1" stroke="none" stroke-width="1" fill="none" fill-rule="evenodd">
        <path d="M20.729937,16.52899 C20.729937,16.110463 20.562526,15.691935 20.261186,15.390596 L15.339305,10.468715 L20.261186,5.546834 C20.562526,5.245494 20.729937,4.826967 20.729937,4.40844 C20.729937,3.989912 20.562526,3.571385 20.261186,3.270046 L17.984398,0.993257 C17.683058,0.691917 17.264531,0.524507 16.846003,0.524507 C16.427476,0.524507 16.008949,0.691917 15.707609,0.993257 L10.785728,5.915138 L5.863847,0.993257 C5.562508,0.691917 5.143981,0.524507 4.725453,0.524507 C4.306926,0.524507 3.888399,0.691917 3.587059,0.993257 L1.310271,3.270046 C1.008931,3.571385 0.84152,3.989912 0.84152,4.40844 C0.84152,4.826967 1.008931,5.245494 1.310271,5.546834 L6.232151,10.468715 L1.310271,15.390596 C1.008931,15.691935 0.84152,16.110463 0.84152,16.52899 C0.84152,16.947517 1.008931,17.366044 1.310271,17.667384 L3.587059,19.944173 C3.888399,20.245512 4.306926,20.412923 4.725453,20.412923 C5.143981,20.412923 5.562508,20.245512 5.863847,19.944173 L10.785728,15.022292 L15.707609,19.944173 C16.008949,20.245512 16.427476,20.412923 16.846003,20.412923 C17.264531,20.412923 17.683058,20.245512 17.984398,19.944173 L20.261186,17.667384 C20.562526,17.366044 20.729937,16.947517 20.729937,16.52899 Z" id="Shape" fill="#E70052" fill-rule="nonzero"></path>
    </g>
</svg>