<?xml version="1.0" encoding="UTF-8" standalone="no"?>
<svg width="19px" height="15px" viewBox="0 0 19 15" version="1.1" xmlns="http://www.w3.org/2000/svg" xmlns:xlink="http://www.w3.org/1999/xlink">
    <!-- Generator: Sketch 3.8.3 (29802) - http://www.bohemiancoding.com/sketch -->
    <title>icon-twitter-white</title>
    <desc>Created with Sketch.</desc>
    <defs></defs>
    <g id="Page-1" stroke="none" stroke-width="1" fill="none" fill-rule="evenodd">
        <g id="Desktop" transform="translate(-502.000000, -505.000000)" fill="#FFFFFF">
            <path d="M519.054565,508.733949 C519.062826,508.896469 519.065924,509.060995 519.065924,509.223515 C519.065924,514.229535 515.145109,520 507.975707,520 C505.773152,520 503.725489,519.372994 502,518.297552 C502.305652,518.332664 502.615435,518.350722 502.929348,518.350722 C504.757065,518.350722 506.43712,517.744783 507.770217,516.730538 C506.06538,516.699438 504.624891,515.605939 504.129239,514.101124 C504.366739,514.144262 504.611467,514.167335 504.862391,514.167335 C505.218641,514.167335 505.563533,514.122191 505.889837,514.035915 C504.106522,513.686798 502.763098,512.156902 502.763098,510.321027 L502.763098,510.273876 C503.288696,510.557785 503.890707,510.728331 504.528859,510.748395 C503.482826,510.068218 502.794076,508.910514 502.794076,507.595305 C502.794076,506.902087 502.986141,506.251003 503.322772,505.691212 C505.244457,507.983547 508.118207,509.490369 511.3575,509.648876 C511.291413,509.370987 511.257337,509.083066 511.257337,508.785112 C511.257337,506.694422 513.001413,505 515.154402,505 C516.275815,505 517.288804,505.458467 518.000272,506.194823 C518.887283,506.024278 519.721631,505.70927 520.475435,505.275883 C520.184239,506.159711 519.565707,506.902087 518.761304,507.370586 C519.550217,507.278291 520.299891,507.076645 521,506.774679 C520.4775,507.535112 519.816631,508.201244 519.054565,508.733949 L519.054565,508.733949 L519.054565,508.733949 Z" id="icon-twitter-white"></path>
        </g>
    </g>
</svg>