<?xml version="1.0" encoding="UTF-8" standalone="no"?>
<svg width="26px" height="33px" viewBox="0 0 26 33" version="1.1" xmlns="http://www.w3.org/2000/svg" xmlns:xlink="http://www.w3.org/1999/xlink">
    <!-- Generator: Sketch 3.7.2 (28276) - http://www.bohemiancoding.com/sketch -->
    <title>icon-scorecard</title>
    <desc>Created with Sketch.</desc>
    <defs></defs>
    <g id="popup" stroke="none" stroke-width="1" fill="none" fill-rule="evenodd">
        <g id="iPhone-6" transform="translate(-35.000000, -419.000000)" fill="#65A140">
            <g id="Group-5" transform="translate(35.000000, 419.000000)">
                <g id="icon-scorecard" transform="translate(0.713077, 0.658203)">
                    <polygon id="Shape" points="0 3.2635468 0 3.80747126 0 31.0036946 0 31.547619 0.543478261 31.547619 24.4565217 31.547619 25 31.547619 25 31.0036946 25 3.80747126 25 3.2635468 24.4565217 3.2635468 17.5951087 3.2635468 17.5951087 4.35139573 23.9130435 4.35139573 23.9130435 30.4597701 1.08695652 30.4597701 1.08695652 4.35139573 7.4048913 4.35139573 7.4048913 3.2635468 0.543478261 3.2635468"></polygon>
                    <path d="M6.52173913,2.17569787 L6.52173913,2.71962233 L6.52173913,4.8953202 L6.52173913,5.43924466 L7.06521739,5.43924466 L16.8478261,5.43924466 L17.3913043,5.43924466 L17.3913043,4.8953202 L17.3913043,2.71962233 L17.3913043,2.17569787 L16.8478261,2.17569787 L7.06521739,2.17569787 L6.52173913,2.17569787 L6.52173913,2.17569787 Z M7.60869565,3.2635468 L16.3043478,3.2635468 L16.3043478,4.35139573 L7.60869565,4.35139573 L7.60869565,3.2635468 L7.60869565,3.2635468 Z" id="Shape"></path>
                    <path d="M11.9565977,0.000217569786 C11.388902,0.000217569786 10.8291488,0.123253284 10.3261629,0.40816092 C9.32037268,0.97819376 8.68767703,2.08029351 8.69572811,3.22982348 L9.78268463,3.22982348 C9.77757594,2.50194376 10.2205042,1.72793924 10.8696412,1.36002874 C11.5188977,0.992335796 12.4316977,0.986678982 13.0775216,1.36002874 C13.7234694,1.73316092 14.1417846,2.50194376 14.1305107,3.22982348 L15.2174672,3.2635468 C15.2352716,2.11412562 14.6220292,1.02018473 13.6209999,0.441884236 C13.1205781,0.152625205 12.5242933,0.00250205255 11.9565977,0 L11.9565977,0.000217569786 Z" id="Shape"></path>
                    <path d="M2.17391304,10.8784893 L2.17391304,11.4224138 L2.17391304,24.476601 L2.17391304,25.0205255 L2.7173913,25.0205255 L21.1956522,25.0205255 L21.7391304,25.0205255 L21.7391304,24.476601 L21.7391304,11.4224138 L21.7391304,10.8784893 L21.1956522,10.8784893 L2.7173913,10.8784893 L2.17391304,10.8784893 L2.17391304,10.8784893 Z M3.26086957,11.9663383 L20.6521739,11.9663383 L20.6521739,23.9326765 L3.26086957,23.9326765 L3.26086957,11.9663383 L3.26086957,11.9663383 Z" id="Shape"></path>
                    <polygon id="Shape" points="2.17391304 19.5812808 2.17391304 20.6691297 21.7391304 20.6691297 21.7391304 19.5812808"></polygon>
                    <polygon id="Shape" points="2.17391304 15.2298851 2.17391304 16.317734 21.7391304 16.317734 21.7391304 15.2298851"></polygon>
                    <polygon id="Shape" points="5.43478261 10.8784893 5.43478261 25.0205255 6.52173913 25.0205255 6.52173913 10.8784893"></polygon>
                    <polygon id="Shape" points="17.3913043 10.8784893 17.3913043 25.0205255 18.4782609 25.0205255 18.4782609 10.8784893"></polygon>
                    <polygon id="Shape" points="14.1304348 10.8784893 14.1304348 25.0205255 15.2173913 25.0205255 15.2173913 10.8784893"></polygon>
                </g>
            </g>
        </g>
    </g>
</svg>