<?xml version="1.0" encoding="UTF-8" standalone="no"?>
<svg width="42px" height="53px" viewBox="0 0 42 53" version="1.1" xmlns="http://www.w3.org/2000/svg" xmlns:xlink="http://www.w3.org/1999/xlink">
    <!-- Generator: Sketch 3.7.2 (28276) - http://www.bohemiancoding.com/sketch -->
    <title>icon-scorecard-big</title>
    <desc>Created with Sketch.</desc>
    <defs></defs>
    <g id="main-layout" stroke="none" stroke-width="1" fill="none" fill-rule="evenodd">
        <g id="Desktop" transform="translate(-140.000000, -1529.000000)" fill="#65A140">
            <g id="icon-scorecard-big" transform="translate(140.000000, 1529.000000)">
                <polygon id="Shape" points="0 5.48275862 0 6.39655172 0 52.0862069 0 53 0.913043478 53 41.0869565 53 42 53 42 52.0862069 42 6.39655172 42 5.48275862 41.0869565 5.48275862 29.5597826 5.48275862 29.5597826 7.31034483 40.173913 7.31034483 40.173913 51.1724138 1.82608696 51.1724138 1.82608696 7.31034483 12.4402174 7.31034483 12.4402174 5.48275862 0.913043478 5.48275862"></polygon>
                <path d="M10.9565217,3.65517241 L10.9565217,4.56896552 L10.9565217,8.22413793 L10.9565217,9.13793103 L11.8695652,9.13793103 L28.3043478,9.13793103 L29.2173913,9.13793103 L29.2173913,8.22413793 L29.2173913,4.56896552 L29.2173913,3.65517241 L28.3043478,3.65517241 L11.8695652,3.65517241 L10.9565217,3.65517241 L10.9565217,3.65517241 Z M12.7826087,5.48275862 L27.3913043,5.48275862 L27.3913043,7.31034483 L12.7826087,7.31034483 L12.7826087,5.48275862 L12.7826087,5.48275862 Z" id="Shape"></path>
                <path d="M20.0870841,0.000365517241 C19.1333554,0.000365517241 18.1929699,0.207065517 17.3479537,0.685710345 C15.6582261,1.64336552 14.5952974,3.4948931 14.6088232,5.42610345 L16.4349102,5.42610345 C16.4263276,4.20326552 17.1704471,2.90293793 18.2609971,2.28484828 C19.3517481,1.66712414 20.8852521,1.65762069 21.9702363,2.28484828 C23.0554286,2.91171034 23.7581982,4.20326552 23.739258,5.42610345 L25.565345,5.48275862 C25.5952563,3.55173103 24.5650091,1.71391034 22.8832798,0.742365517 C22.0425712,0.256410345 21.0408128,0.00420344828 20.0870841,0 L20.0870841,0.000365517241 Z" id="Shape"></path>
                <g id="Group-8" transform="translate(4.000000, 18.000000)">
                    <path d="M0.652173913,0.275862069 L0.652173913,1.18965517 L0.652173913,23.1206897 L0.652173913,24.0344828 L1.56521739,24.0344828 L32.6086957,24.0344828 L33.5217391,24.0344828 L33.5217391,23.1206897 L33.5217391,1.18965517 L33.5217391,0.275862069 L32.6086957,0.275862069 L1.56521739,0.275862069 L0.652173913,0.275862069 L0.652173913,0.275862069 Z M2.47826087,2.10344828 L31.6956522,2.10344828 L31.6956522,22.2068966 L2.47826087,22.2068966 L2.47826087,2.10344828 L2.47826087,2.10344828 Z" id="Shape"></path>
                    <polygon id="Shape" points="0.652173913 14.8965517 0.652173913 16.7241379 33.5217391 16.7241379 33.5217391 14.8965517"></polygon>
                    <polygon id="Shape" points="0.652173913 7.5862069 0.652173913 9.4137931 33.5217391 9.4137931 33.5217391 7.5862069"></polygon>
                    <polygon id="Shape" points="6.13043478 0.275862069 6.13043478 24.0344828 7.95652174 24.0344828 7.95652174 0.275862069"></polygon>
                    <polygon id="Shape" points="26.2173913 0.275862069 26.2173913 24.0344828 28.0434783 24.0344828 28.0434783 0.275862069"></polygon>
                    <polygon id="Shape" points="20.7391304 0.275862069 20.7391304 24.0344828 22.5652174 24.0344828 22.5652174 0.275862069"></polygon>
                </g>
            </g>
        </g>
    </g>
</svg>