<?xml version="1.0" encoding="UTF-8" standalone="no"?>
<svg width="137px" height="73px" viewBox="0 0 137 73" version="1.1" xmlns="http://www.w3.org/2000/svg" xmlns:xlink="http://www.w3.org/1999/xlink">
    <!-- Generator: Sketch 3.7.2 (28276) - http://www.bohemiancoding.com/sketch -->
    <title>economic-policy-institute-epi-logo</title>
    <desc>Created with Sketch.</desc>
    <defs>
        <polygon id="path-1" points="0.00718845777 0.00975220489 0.00718845777 20.2837434 18.0949057 20.2837434 18.0949057 0.00975220489 0.00718845777 0.00975220489"></polygon>
        <polygon id="path-3" points="0.00718845777 0.0281730364 0.00718845777 40.3203105 136.175748 40.3203105 136.175748 0.0281730364 0.00718845777 0.0281730364"></polygon>
        <polygon id="path-5" points="68.6157463 40.2055716 0.00718845777 40.2055716 0.00718845777 0.0784992295 68.6157463 0.0784992295 68.6157463 40.2055716"></polygon>
        <polygon id="path-7" points="0.00970441799 19.8583787 26.00796 19.8583787 26.00796 0.0392496148 0.00970441799 0.0392496148 0.00970441799 19.8583787"></polygon>
    </defs>
    <g id="main-layout" stroke="none" stroke-width="1" fill="none" fill-rule="evenodd">
        <g id="Desktop" transform="translate(-951.000000, -384.000000)">
            <g id="economic-policy-institute-epi-logo" transform="translate(951.500000, 384.314732)">
                <g id="Group-3" transform="translate(0.000000, 1.685566)">
                    <mask id="mask-2" fill="white">
                        <use xlink:href="#path-1"></use>
                    </mask>
                    <g id="Clip-2"></g>
                    <path d="M18.0949057,12.9087889 L17.5006599,12.9087889 C15.4803438,18.1937616 13.7271988,19.7163095 10.7262573,19.7163095 L9.74575162,19.7163095 C8.64639681,19.7163095 8.17100014,19.2388127 8.17100014,18.1041858 L8.17100014,10.1318185 L9.18121807,10.1318185 C11.0233802,10.1318185 11.8553244,11.2067282 13.043816,14.9091949 L13.4895004,14.9091949 C13.4597881,13.2371132 13.4597881,11.5651518 13.4597881,9.89294968 C13.4597881,8.22086793 13.4597881,6.51904798 13.4895004,4.87670443 L13.043816,4.87670443 C11.8850366,8.34042274 11.0233802,9.56450505 9.21093036,9.56450505 L8.17100014,9.56450505 L8.17100014,0.577065655 L10.5776958,0.577065655 C13.1923775,0.577065655 14.8562659,2.2192888 16.6985478,7.05638243 L17.3223861,7.05638243 L17.1738246,0.00975220489 L0,0.00975220489 L0,0.487489847 L1.24791627,0.696500065 C2.82266775,0.965227489 3.06036609,1.44296513 3.06036609,2.87629846 L3.06036609,17.4173175 C3.06036609,18.8505305 2.82266775,19.3283885 1.24791627,19.5968751 L0,19.8060058 L0,20.2837434 L17.946464,20.2837434 L18.0949057,12.9087889" id="Fill-1" fill="#1A1918" mask="url(#mask-2)"></path>
                </g>
                <path d="M27.3946135,22.4173091 C30.187569,22.4173091 32.0891557,21.1035306 33.545058,18.4162564 L33.0993736,18.1772671 C31.8811696,20.2375107 30.5142844,21.0438134 28.8208035,21.0438134 C26.4438202,21.0438134 24.8690687,19.1327424 24.8690687,14.6242138 C24.8690687,9.7869998 26.0575604,7.36845298 28.4048314,7.36845298 C29.6230354,7.36845298 30.2469936,7.90590783 30.2469936,8.35390727 C30.2469936,9.15996914 28.1968454,9.13011054 28.1968454,11.3097885 C28.1968454,12.7131429 29.2366558,13.5790423 30.6926779,13.5790423 C32.2674294,13.5790423 33.3964965,12.3846982 33.3964965,10.7724541 C33.3964965,8.50307988 31.3463484,6.89083574 28.0184518,6.89083574 C23.7694743,6.89083574 20.1446944,9.72728259 20.1446944,14.7735068 C20.1446944,19.9091865 23.5318957,22.4173091 27.3946135,22.4173091" id="Fill-4" fill="#1A1918"></path>
                <path d="M42.51829,7.39831159 C44.6279825,7.39831159 45.162684,9.99613041 45.162684,14.6540724 C45.162684,19.3417526 44.6279825,21.9095925 42.51829,21.9095925 C40.4087173,21.9095925 39.8737762,19.3417526 39.8737762,14.6540724 C39.8737762,9.99613041 40.4087173,7.39831159 42.51829,7.39831159 L42.51829,7.39831159 Z M42.51829,22.4173091 C46.2621586,22.4173091 49.857346,19.7897521 49.857346,14.6540724 C49.857346,9.54825137 46.2621586,6.89083574 42.51829,6.89083574 C38.7745412,6.89083574 35.1496416,9.54825137 35.1496416,14.6540724 C35.1496416,19.7897521 38.7745412,22.4173091 42.51829,22.4173091 L42.51829,22.4173091 Z" id="Fill-5" fill="#1A1918"></path>
                <path d="M53.2741397,10.5334649 L53.2741397,19.5806215 C53.2741397,20.8346828 53.0662735,21.1928656 51.9669187,21.3720172 L51.1051424,21.5214306 L51.1051424,21.9693097 C52.5610447,21.9693097 53.8683856,21.9394511 55.3540002,21.9394511 C56.8100223,21.9394511 58.1470755,21.9693097 59.6029778,21.9693097 L59.6029778,21.5214306 L58.8006261,21.3720172 C57.9390894,21.1928656 57.7309836,20.924379 57.7309836,19.6703177 L57.7309836,14.1762144 C57.7309836,10.3543132 58.9788998,8.23447286 60.6131957,8.23447286 C61.8908243,8.23447286 62.455238,9.10025194 62.455238,11.2202127 L62.455238,19.6703177 C62.455238,20.924379 62.2473718,21.1928656 61.3558832,21.3720172 L60.5834834,21.5214306 L60.5834834,21.9693097 C62.0393857,21.9693097 63.4061512,21.9394511 64.8621733,21.9394511 C66.3179558,21.9394511 67.5955843,21.9693097 69.0811989,21.9693097 L69.0811989,21.5214306 L68.1898302,21.3720172 C67.0607631,21.1928656 66.8824893,20.8346828 66.8824893,19.5806215 L66.8824893,11.9369396 C66.8824893,8.56279709 65.1294641,6.89083574 62.2176595,6.89083574 C58.7412015,6.89083574 57.285419,9.69754439 57.285419,14.1762144 C57.285419,10.9813439 57.3448436,8.95095892 57.4635729,7.24901857 L56.8694469,7.04012875 L50.7190024,8.26433146 L50.7190024,8.6822315 L51.6102514,8.7419487 C52.9474243,8.86138311 53.2741397,9.15996914 53.2741397,10.5334649" id="Fill-6" fill="#1A1918"></path>
                <path d="M77.1291566,7.39831159 C79.2387294,7.39831159 79.7736705,9.99613041 79.7736705,14.6540724 C79.7736705,19.3417526 79.2387294,21.9095925 77.1291566,21.9095925 C75.0197037,21.9095925 74.4847627,19.3417526 74.4847627,14.6540724 C74.4847627,9.99613041 75.0197037,7.39831159 77.1291566,7.39831159 L77.1291566,7.39831159 Z M77.1291566,22.4173091 C80.8729055,22.4173091 84.4680928,19.7897521 84.4680928,14.6540724 C84.4680928,9.54825137 80.8729055,6.89083574 77.1291566,6.89083574 C73.3854078,6.89083574 69.7605082,9.54825137 69.7605082,14.6540724 C69.7605082,19.7897521 73.3854078,22.4173091 77.1291566,22.4173091 L77.1291566,22.4173091 Z" id="Fill-7" fill="#1A1918"></path>
                <path d="M87.6263417,10.5036063 L87.6263417,19.5806215 C87.6263417,20.8346828 87.4184755,21.1928656 86.3191207,21.3720172 L85.4573444,21.5214306 L85.4573444,21.9693097 C86.942959,21.9693097 88.0721459,21.9394511 89.5875926,21.9394511 C91.0732072,21.9394511 92.439733,21.9693097 93.9254675,21.9693097 L93.9254675,21.5214306 L93.1529479,21.3720172 C92.2914112,21.1928656 92.0834251,20.924379 92.0834251,19.6703177 L92.0834251,14.1762144 C92.0834251,10.3244546 93.3016291,8.23447286 94.9058533,8.23447286 C96.0945846,8.23447286 96.6291662,9.18982774 96.6291662,11.2202127 L96.6291662,19.6703177 C96.6291662,20.924379 96.4214198,21.1928656 95.5596435,21.3720172 L94.7872437,21.5214306 L94.7872437,21.9693097 C96.1837215,21.9693097 97.4612302,21.9394511 98.8578277,21.9394511 C100.254305,21.9394511 101.531934,21.9693097 102.928172,21.9693097 L102.928172,21.5214306 L102.155772,21.3720172 C101.264523,21.1928656 101.056418,20.924379 101.056418,19.6703177 L101.056418,14.1762144 C101.056418,10.3543132 102.274622,8.23447286 103.879205,8.23447286 C105.067697,8.23447286 105.63235,9.13011054 105.63235,11.2202127 L105.63235,19.6703177 C105.63235,20.924379 105.424244,21.1928656 104.562468,21.3720172 L103.790068,21.5214306 L103.790068,21.9693097 C105.305395,21.9693097 106.642448,21.9394511 108.128183,21.9394511 C109.613797,21.9394511 110.742864,21.9693097 112.258191,21.9693097 L112.258191,21.5214306 L111.396415,21.3720172 C110.267348,21.1928656 110.089074,20.8346828 110.089074,19.5806215 L110.089074,11.9369396 C110.089074,8.53293849 108.425306,6.89083574 105.513381,6.89083574 C102.155772,6.89083574 100.640445,9.51839277 100.640445,14.1762144 C100.640445,13.5194455 100.670158,12.8325773 100.670158,11.877102 C100.670158,8.41362447 99.3032725,6.89083574 96.4808444,6.89083574 C93.1232356,6.89083574 91.637621,9.63782718 91.637621,14.1762144 C91.637621,11.0112025 91.6970455,8.95095892 91.8158947,7.24901857 L91.2215291,7.04012875 L85.0712044,8.26433146 L85.0712044,8.6822315 L85.9625732,8.7419487 C87.2996263,8.86138311 87.6263417,9.15996914 87.6263417,10.5036063" id="Fill-8" fill="#1A1918"></path>
                <path d="M119.655833,19.6104801 L119.655833,10.9217471 C119.655833,9.63782718 119.685545,8.44336268 119.774802,7.21915997 L119.180676,7.01027015 L112.643852,8.20461425 L112.643852,8.62251429 L113.535221,8.6822315 C114.872274,8.80166591 115.199109,9.13011054 115.199109,10.4737477 L115.199109,19.5806215 C115.199109,20.8346828 114.991123,21.1928656 113.891768,21.3720172 L113.030232,21.5214306 L113.030232,21.9693097 C114.545319,21.9693097 115.912084,21.9394511 117.427531,21.9394511 C118.942858,21.9394511 120.279672,21.9693097 121.82519,21.9693097 L121.82519,21.5214306 L120.963773,21.3720172 C119.863939,21.1928656 119.655833,20.8346828 119.655833,19.6104801" id="Fill-9" fill="#1A1918"></path>
                <path d="M117.341988,5.41078815 C118.976284,5.41078815 120.194608,4.39559566 120.194608,2.75337251 C120.194608,1.11126977 119.005997,0.0959568802 117.341988,0.0959568802 C115.767357,0.0959568802 114.578865,1.11126977 114.578865,2.75337251 C114.578865,4.36573706 115.767357,5.41078815 117.341988,5.41078815" id="Fill-10" fill="#1A1918"></path>
                <g id="Group-14" transform="translate(0.000000, 6.862663)">
                    <mask id="mask-4" fill="white">
                        <use xlink:href="#path-3"></use>
                    </mask>
                    <g id="Clip-12"></g>
                    <path d="M135.730063,11.3146044 C134.51162,13.374848 133.145813,14.1811507 131.451733,14.1811507 C129.07475,14.1811507 127.500477,12.2700797 127.500477,7.76155112 C127.500477,2.92433709 128.688969,0.505790281 131.036,0.505790281 C132.254444,0.505790281 132.877444,1.04324513 132.877444,1.49124457 C132.877444,2.29730644 130.827535,2.26744784 130.827535,4.44712583 C130.827535,5.85048015 131.867465,6.71637963 133.323128,6.71637963 C134.898598,6.71637963 136.027186,5.52203552 136.027186,3.90979138 C136.027186,1.64041718 133.977278,0.0281730364 130.649022,0.0281730364 C126.400643,0.0281730364 122.775264,2.86461989 122.775264,7.91084413 C122.775264,13.0465238 126.163424,15.5546464 130.026022,15.5546464 C132.818738,15.5546464 134.720085,14.2408679 136.175748,11.5535937 L135.730063,11.3146044" id="Fill-11" fill="#1A1918" mask="url(#mask-4)"></path>
                    <path d="M8.17088033,20.6136328 L9.83476869,20.6136328 C12.3603135,20.6136328 13.8162158,22.0764635 13.8162158,25.8090297 C13.8162158,29.4517792 12.2415842,31.0043061 9.86448098,31.0043061 C9.56735806,31.0043061 8.61656471,30.9744475 8.17088033,30.9445889 L8.17088033,20.6136328 L8.17088033,20.6136328 Z M8.17088033,37.3044713 L8.17088033,31.5120228 C8.646277,31.5418814 9.56735806,31.57174 9.86448098,31.57174 C15.1831011,31.57174 19.1051236,29.7502448 19.1051236,25.8090297 C19.1051236,21.6586839 15.4207994,20.0461989 9.86448098,20.0461989 L0,20.0461989 L0,20.524057 L1.24791627,20.7330672 C2.82266775,21.0016742 3.06036609,21.4794119 3.06036609,22.9127452 L3.06036609,37.4836229 C3.06036609,38.9168358 2.82266775,39.3648352 1.24791627,39.6336831 L0,39.8426933 L0,40.3203105 C1.96101128,40.3203105 3.80317339,40.2904519 5.73447238,40.2904519 C7.69548365,40.2904519 9.59707035,40.3203105 11.5284891,40.3203105 L11.5284891,39.8426933 L10.1913162,39.6336831 C8.49783535,39.3648352 8.17088033,38.7974014 8.17088033,37.3044713 L8.17088033,37.3044713 Z" id="Fill-13" fill="#1A1918" mask="url(#mask-4)"></path>
                </g>
                <path d="M26.8342732,32.6119751 C28.9437262,32.6119751 29.4786672,35.2096736 29.4786672,39.8676156 C29.4786672,44.5552958 28.9437262,47.123256 26.8342732,47.123256 C24.7247005,47.123256 24.1897594,44.5552958 24.1897594,39.8676156 C24.1897594,35.2096736 24.7247005,32.6119751 26.8342732,32.6119751 L26.8342732,32.6119751 Z M26.8342732,47.6308523 C30.578022,47.6308523 34.1730896,45.0032952 34.1730896,39.8676156 C34.1730896,34.7617945 30.578022,32.1042585 26.8342732,32.1042585 C23.0904046,32.1042585 19.4656248,34.7617945 19.4656248,39.8676156 C19.4656248,45.0032952 23.0904046,47.6308523 26.8342732,47.6308523 L26.8342732,47.6308523 Z" id="Fill-15" fill="#1A1918"></path>
                <path d="M37.4255073,28.0858685 L37.4255073,44.794285 C37.4255073,46.0483463 37.2175212,46.4066496 36.0884541,46.5859216 L35.25651,46.7349738 L35.25651,47.1829732 C36.7717171,47.1829732 38.1087702,47.1531146 39.6538094,47.1531146 C41.1692561,47.1531146 42.5063092,47.1829732 44.0514682,47.1829732 L44.0514682,46.7349738 L43.1598599,46.5859216 C42.060505,46.4066496 41.852519,46.0483463 41.852519,44.794285 L41.852519,28.6829202 C41.852519,27.3988798 41.8822313,25.9656669 42.0307928,24.7414642 L41.5258036,24.532454 L34.751401,25.8163739 L34.751401,26.1746771 L35.7912114,26.3240905 C37.187809,26.5032422 37.4255073,26.8018282 37.4255073,28.0858685" id="Fill-16" fill="#1A1918"></path>
                <path d="M46.3147542,46.5859216 L45.4530977,46.7349738 L45.4530977,47.1829732 C46.9684246,47.1829732 48.33519,47.1531146 49.8505169,47.1531146 C51.3658438,47.1531146 52.702897,47.1829732 54.248056,47.1829732 L54.2479362,46.7349738 L53.3863995,46.5859216 C52.2870447,46.4066496 52.0789388,46.0483463 52.0789388,44.8241436 L52.0789388,36.1352903 C52.0789388,34.8513703 52.1087709,33.6570262 52.1979078,32.4328235 L51.603662,32.2238133 L45.0668379,33.4181574 L45.0668379,33.8361779 L45.9583265,33.8958951 C47.2952598,34.0152091 47.622095,34.3436537 47.622095,35.6872908 L47.622095,44.794285 C47.622095,46.0483463 47.414109,46.4066496 46.3147542,46.5859216" id="Fill-17" fill="#1A1918"></path>
                <path d="M52.3675554,27.9658321 C52.3675554,26.323609 51.1790637,25.3084165 49.5150556,25.3084165 C47.9403041,25.3084165 46.7518124,26.323609 46.7518124,27.9658321 C46.7518124,29.578317 47.9403041,30.6233681 49.5150556,30.6233681 C51.1493514,30.6233681 52.3675554,29.6081756 52.3675554,27.9658321" id="Fill-18" fill="#1A1918"></path>
                <g id="Group-24" transform="translate(0.000000, 32.025759)">
                    <mask id="mask-6" fill="white">
                        <use xlink:href="#path-5"></use>
                    </mask>
                    <g id="Clip-20"></g>
                    <path d="M68.6157463,11.6040402 L68.1701817,11.3651714 C66.9519778,13.4252946 65.5852123,14.2315973 63.8914919,14.2315973 C61.5145085,14.2315973 59.939757,12.3205263 59.939757,7.81199771 C59.939757,2.97490408 61.1282487,0.556357269 63.4756396,0.556357269 C64.6938436,0.556357269 65.3176819,1.09369172 65.3176819,1.54169116 C65.3176819,2.34775303 63.2676535,2.31789443 63.2676535,4.49757242 C63.2676535,5.90092674 64.3075838,6.76694662 65.7634861,6.76694662 C67.3381177,6.76694662 68.4674245,5.57260251 68.4674245,3.96023797 C68.4674245,1.69098417 66.4170367,0.0784992295 63.0893798,0.0784992295 C58.8404022,0.0784992295 55.2155026,2.91518688 55.2155026,7.96129072 C55.2155026,13.0969704 58.6027039,15.605093 62.4653018,15.605093 C65.2582573,15.605093 67.1599638,14.2913145 68.6157463,11.6040402" id="Fill-19" fill="#1A1918" mask="url(#mask-6)"></path>
                    <path d="M0,19.4908049 L0,19.9686629 L1.24791627,20.1776731 C2.82266775,20.4461597 3.06036609,20.9240178 3.06036609,22.3572307 L3.06036609,36.8983702 C3.06036609,38.3315831 2.82266775,38.8094412 1.24791627,39.0781686 L0,39.2872992 L0,39.764796 C1.90158669,39.764796 3.71415632,39.7349374 5.61562321,39.7349374 C7.547042,39.7349374 9.32965972,39.764796 11.2313662,39.764796 L11.2313662,39.2872992 L9.98344995,39.0781686 C8.40869847,38.8094412 8.17088033,38.3315831 8.17088033,36.8983702 L8.17088033,22.3572307 C8.17088033,20.9240178 8.40869847,20.4461597 9.98344995,20.1776731 L11.2313662,19.9686629 L11.2313662,19.4908049 C9.32965972,19.5206635 7.547042,19.5206635 5.61562321,19.5206635 C3.71415632,19.5206635 1.90158669,19.5206635 0,19.4908049" id="Fill-21" fill="#1A1918" mask="url(#mask-6)"></path>
                    <path d="M27.9889792,37.3762282 L27.9889792,29.7323056 C27.9889792,26.3584039 26.2358341,24.6862017 23.3240295,24.6862017 C19.8476913,24.6862017 18.391789,27.4930308 18.391789,31.9717008 C18.391789,28.7769507 18.4512136,26.7464453 18.5700628,25.0446253 L17.9758169,24.8354947 L11.8253724,26.0596974 L11.8253724,26.4778383 L12.716861,26.5375555 C14.0537944,26.6567491 14.3805098,26.9554555 14.3805098,28.3289512 L14.3805098,37.3762282 C14.3805098,38.6302895 14.1726435,38.9885928 13.0732887,39.1677444 L12.2116322,39.316917 L12.2116322,39.764796 C13.6675346,39.764796 14.9748754,39.7349374 16.4606098,39.7349374 C17.9163923,39.7349374 19.2534455,39.764796 20.7093478,39.764796 L20.7093478,39.316917 L19.9071159,39.1677444 C19.0455792,38.9885928 18.8374734,38.7198653 18.8374734,37.465804 L18.8374734,31.9717008 C18.8374734,28.1497996 20.0853897,26.0298388 21.7195657,26.0298388 C22.9971943,26.0298388 23.5617278,26.8957383 23.5617278,29.0158195 L23.5617278,37.465804 C23.5617278,38.7198653 23.3537418,38.9885928 22.462373,39.1677444 L21.6898534,39.316917 L21.6898534,39.764796 C23.1457557,39.764796 24.512641,39.7349374 25.9684235,39.7349374 C27.4243258,39.7349374 28.7019544,39.764796 30.1876888,39.764796 L30.1876888,39.316917 L29.2962002,39.1677444 C28.1672529,38.9885928 27.9889792,38.6302895 27.9889792,37.3762282" id="Fill-22" fill="#1A1918" mask="url(#mask-6)"></path>
                    <path d="M38.2830903,30.418933 C35.6386963,29.4337195 34.3610677,28.7470921 34.3610677,27.2540415 C34.3610677,26.0596974 35.2523167,25.1939184 36.8866126,25.1939184 C38.7880795,25.1939184 40.0359957,26.9255969 41.2840318,30.3594566 L41.7891408,30.3594566 L41.7891408,24.7160603 L41.5513226,24.7160603 L40.6600737,25.9104044 C39.7388728,25.1342012 38.4019395,24.6862017 36.9163249,24.6862017 C33.6182604,24.6862017 31.419431,26.6268905 31.419431,29.3441437 C31.419431,32.180711 33.5290038,33.5243481 35.7278332,34.3305304 C38.4909565,35.3458433 39.5904312,36.0923083 39.5904312,37.5553798 C39.5904312,39.1378858 38.3425149,39.7050788 36.8866126,39.7050788 C34.77692,39.7050788 33.1131515,38.0033793 31.746386,33.8230545 L31.2411573,33.8230545 L31.2411573,40.1530783 L31.4788556,40.1530783 L32.4593612,38.8392998 C33.4992915,39.7050788 35.0443307,40.2127955 36.8866126,40.2127955 C40.2736941,40.2127955 42.5616604,38.4211589 42.5616604,35.3757019 C42.5616604,32.509276 40.392663,31.1954975 38.2830903,30.418933" id="Fill-23" fill="#1A1918" mask="url(#mask-6)"></path>
                </g>
                <path d="M51.5487901,70.865059 C50.5978769,70.865059 50.0927679,70.3274838 50.0927679,68.7452186 L50.0927679,58.2647287 L52.9668332,58.0431972 L52.9668332,57.1599604 L50.0927679,57.1599604 L50.2117369,52.4122018 L47.775329,52.4122018 L47.5077985,53.8753937 C47.0619943,56.3237992 46.4678683,56.8015368 44.3582956,57.1599604 L42.9618178,57.3985885 L42.9618178,57.9063051 L45.6359241,58.4140217 L45.6359241,68.1180676 C45.6359241,70.8352004 47.2403879,72.2086962 49.8550696,72.2086962 C52.7372818,72.2086962 53.8068045,70.715766 54.4604749,67.6402096 L53.9554857,67.5506337 C53.3908324,69.9095838 52.6183128,70.865059 51.5487901,70.865059" id="Fill-25" fill="#1A1918"></path>
                <path d="M61.516665,69.4230571 L61.516665,60.7342037 C61.516665,59.4502838 61.5463773,58.2559397 61.6355142,57.031737 L61.0411486,56.8227268 L54.7547224,57.1512918 L54.7547224,58.0345285 L55.3959329,58.0577653 C56.7328662,58.1771997 57.0597014,58.9426876 57.0597014,60.2863247 L57.0597014,69.3931985 C57.0597014,70.6472598 56.8517154,71.0056834 55.7523606,71.184835 L54.8907041,71.3338873 L54.8907041,71.7818867 C56.4061508,71.7818867 57.7729162,71.7520281 59.2881233,71.7520281 C60.80357,71.7520281 62.1405034,71.7818867 63.6855425,71.7818867 L63.6855425,71.3338873 L62.8240059,71.184835 C61.7246511,71.0056834 61.516665,70.6472598 61.516665,69.4230571" id="Fill-26" fill="#1A1918"></path>
                <path d="M56.1980449,52.5735346 C56.1980449,54.1860195 57.3865366,55.2309502 58.9614079,55.2309502 C60.5954642,55.2309502 61.8136681,54.2158781 61.8136681,52.5735346 C61.8136681,50.9313114 60.6251765,49.916119 58.9614079,49.916119 C57.3865366,49.916119 56.1980449,50.9313114 56.1980449,52.5735346" id="Fill-27" fill="#1A1918"></path>
                <g id="Group-31" transform="translate(92.251875, 52.372952)">
                    <mask id="mask-8" fill="white">
                        <use xlink:href="#path-7"></use>
                    </mask>
                    <g id="Clip-29"></g>
                    <path d="M7.2596235,0.0392496148 L4.82321555,0.0392496148 L4.55568511,1.50244154 C4.11000073,3.95084696 3.51587469,4.4285846 1.40618215,4.78700823 L0.00970441799,5.02563625 L0.00970441799,5.5333529 L2.68381071,6.04106954 L2.68381071,15.7451154 C2.68381071,18.4622482 4.28827448,19.835744 6.90295619,19.835744 C9.78516833,19.835744 10.8548108,18.3428138 11.5084813,15.2672574 L11.0033723,15.1776815 C10.4388388,17.5366316 9.66631916,18.4921068 8.59667664,18.4921068 C7.64576349,18.4921068 7.14077433,17.9545316 7.14077433,16.3722664 L7.14077433,5.89177653 L11.5679059,5.65278731 L11.5679059,4.78700823 L7.14077433,4.78700823 L7.2596235,0.0392496148" id="Fill-28" fill="#1A1918" mask="url(#mask-8)"></path>
                    <path d="M19.9169401,4.84672543 C21.8185268,4.84672543 21.937376,7.35484805 21.6996777,10.4898809 L17.3319707,10.7885874 C17.4508199,6.33941477 18.4016132,4.84672543 19.9169401,4.84672543 L19.9169401,4.84672543 Z M25.9189429,11.3258014 C25.9782477,10.9975976 26.00796,10.5197395 26.00796,10.0122637 C26.00796,6.42911098 23.7795381,4.33900879 19.9169401,4.33900879 C16.2326159,4.33900879 12.578004,6.90684862 12.578004,12.1620831 C12.578004,17.2380455 15.8760684,19.8656026 19.8575155,19.8656026 C22.6505908,19.8656026 24.5818898,18.4921068 25.9782477,15.8645498 L25.5325633,15.6255606 C24.3143594,17.6858042 22.9475939,18.4921068 21.2539933,18.4921068 C18.8771297,18.4921068 17.3022584,16.5810359 17.3022584,12.0725073 L17.3022584,11.3258014 L25.9189429,11.3258014 L25.9189429,11.3258014 Z" id="Fill-30" fill="#1A1918" mask="url(#mask-8)"></path>
                </g>
                <path d="M90.2034038,69.4474978 L90.2034038,59.8156905 L90.3232115,57.1669435 L83.4940568,57.1669435 L83.4940568,57.6485339 L84.5723254,57.7689314 C85.5307865,57.889329 85.7704017,58.3709194 85.7704017,59.5748953 L85.7704017,65.9559676 C85.7704017,69.3271002 84.5723254,71.0126665 83.2544415,71.0126665 C82.1761728,71.0126665 81.4573271,70.2902809 81.4573271,68.2435219 L81.4573271,59.6952929 L81.5771347,57.1669435 L72.3859726,57.1669435 C75.0382739,55.3848183 76.7152213,51.1864339 78.2548691,47.2429312 L81.7919498,37.2200726 C82.8702184,34.3305304 83.4692566,33.4877472 85.1465634,33.1265545 L85.6257939,33.0061569 L85.6257939,32.5245665 L79.2759896,32.5245665 L79.2759896,33.0061569 L79.9948353,33.1265545 C81.1929116,33.3673496 81.7919498,33.84894 81.7919498,34.6917231 C81.7919498,35.1733135 81.6721421,35.8956991 81.1929116,36.9792774 L79.1561819,42.397169 L76.2807988,35.2937111 C75.8015683,33.9693376 75.9213759,33.246952 76.9996446,33.1265545 L77.838298,33.0061569 L77.838298,32.5245665 L68.7329182,32.5245665 L68.7329182,33.0061569 L69.4517639,33.1265545 C70.410225,33.246952 70.8894555,33.84894 71.6083013,35.5345063 L77.2439324,47.7776169 L76.7288794,49.0808005 C75.0048476,53.6072683 72.2515484,56.9728626 70.5672928,56.6808984 L70.6746404,52.4714374 L68.1586802,52.4714374 L67.9190649,53.9162085 C67.4398344,56.3241603 66.8407963,56.8057507 64.8040666,57.1669435 L63.366375,57.4077387 L63.366375,57.889329 L66.0021429,58.3709194 L66.0021429,68.1231243 C66.0021429,70.8922689 67.6794497,72.2166424 70.3152175,72.2166424 C73.1906006,72.2166424 74.2688693,70.7718713 74.8679075,67.6415339 L74.3886769,67.5211363 C73.7896388,69.9290882 73.070793,70.8922689 71.9925243,70.8922689 C71.0340633,70.8922689 70.5548328,70.2902809 70.5548328,68.7251122 L70.5548328,58.2458263 C70.9769151,58.2164493 72.4561799,58.1176029 74.1187503,58.0536717 C75.9458167,57.9833596 77.0244448,58.3709194 77.0244448,59.5748953 L77.0244448,67.6415339 C77.0244448,70.7718713 78.8215592,72.2166424 81.5771347,72.2166424 C84.8119407,72.2166424 86.2496322,70.0494858 86.2496322,65.9559676 L86.2496322,71.4942568 L86.4892475,71.735052 L92.3599412,71.735052 L92.3599412,71.3738593 L91.4014801,71.2534617 C90.3232115,71.0126665 90.2034038,70.6514737 90.2034038,69.4474978" id="Fill-32" fill="#1A1918"></path>
            </g>
        </g>
    </g>
</svg>