<?xml version="1.0" encoding="UTF-8" standalone="no"?>
<svg width="188px" height="74px" viewBox="0 0 188 74" version="1.1" xmlns="http://www.w3.org/2000/svg" xmlns:xlink="http://www.w3.org/1999/xlink" xmlns:sketch="http://www.bohemiancoding.com/sketch/ns">
    <!-- Generator: Sketch 3.5.2 (25235) - http://www.bohemiancoding.com/sketch -->
    <title>logo-oxfam-america</title>
    <desc>Created with Sketch.</desc>
    <defs></defs>
    <g id="Page-1" stroke="none" stroke-width="1" fill="none" fill-rule="evenodd" sketch:type="MSPage">
        <g id="logo-oxfam-america" sketch:type="MSLayerGroup" fill="#61A534">
            <path d="M42.4656238,41.0155948 C46.6700222,38.7085747 49.6163577,34.3961954 49.9900058,29.3570877 C49.9900058,29.1565518 49.8288915,28.9954374 49.6266416,28.9954374 L43.1495027,28.9954374 C42.9489668,28.9954374 42.8084202,29.1548378 42.7844245,29.3570877 C42.2599459,32.9153148 39.1936317,35.6474025 35.4880021,35.6474025 C31.7840865,35.6474025 28.7177723,32.9153148 28.1915798,29.3570877 C28.172726,29.1462679 28.0287514,28.9954374 27.8265015,28.9954374 L21.3493627,28.9954374 C21.1505407,28.9954374 20.9859985,29.1565518 20.9859985,29.3570877 C21.3596466,34.3961954 24.307696,38.7085747 28.5103805,41.0155948 C24.1037321,43.4305958 21.0819815,48.0583478 20.9500048,53.4059724 C20.9500048,53.6065083 21.1128331,53.7693366 21.3133691,53.7693366 L27.7545143,53.7693366 C27.9550502,53.7693366 28.1195925,53.6065083 28.1195925,53.4059724 C28.3098445,49.4998069 31.5355591,46.3923571 35.4880021,46.3923571 C39.4438731,46.3923571 42.6713017,49.4998069 42.8581257,53.4059724 C42.8581257,53.6065083 43.022668,53.7693366 43.22149,53.7693366 L49.6643492,53.7693366 C49.8648851,53.7693366 50.0277134,53.6065083 50.0277134,53.4059724 C49.8957368,48.0583478 46.8739861,43.4305958 42.4656238,41.0155948 M21.3613606,27.5402665 L27.8384994,27.5402665 C28.0390353,27.5402665 28.1812959,27.3808662 28.2018637,27.1751883 C28.7280562,23.6186752 31.7960844,20.8883015 35.5,20.8883015 C39.2039156,20.8883015 42.2702298,23.6186752 42.7981363,27.1751883 C42.8204181,27.3757242 42.9832464,27.5402665 43.1820684,27.5402665 L49.6369255,27.5402665 C49.8391754,27.5402665 50.0002897,27.3774382 50.0002897,27.1769023 C49.4449594,19.6542343 43.1649285,13.7255697 35.5,13.7255697 C27.8333575,13.7255697 21.5550406,19.6542343 20.9979963,27.1769023 C20.9979963,27.3774382 21.1608246,27.5402665 21.3613606,27.5402665 M71,35.498286 C71,55.1062428 55.1062428,71 35.5,71 C15.8937572,71 0,55.1062428 0,35.498286 C0,15.8937572 15.8937572,0 35.5,0 C55.1062428,0 71,15.8937572 71,35.498286" id="Fill-150-Copy" sketch:type="MSShapeGroup"></path>
            <path d="M90.1189631,58.1538462 L86,73.7795891 L87.7035112,73.7795891 L88.900944,69.3764646 L94.2362106,69.3764646 L95.3890399,73.7795891 L97.0719649,73.7795891 L92.8860965,58.1538462 L90.1189631,58.1538462 Z M122.821231,66.2193921 C122.821231,65.0579046 122.28942,63.6994396 120.163891,63.6994396 C118.503268,63.6994396 117.484249,64.6197996 117.484249,66.2193921 L117.484249,66.9206996 L122.821231,66.9206996 L122.821231,66.2193921 Z M157.317075,68.5206317 L154.127924,68.5206317 C152.867017,68.5206317 152.024696,69.0028867 152.024696,70.2305994 C152.024696,71.9405672 153.287319,72.334522 154.505338,72.334522 C155.900056,72.334522 157.317075,71.4362371 157.317075,69.8570216 L157.317075,68.5206317 Z M91.4021719,59.7092885 L91.6903792,59.7092885 L93.7936065,67.7310239 L89.2989446,67.7310239 L91.4021719,59.7092885 Z M112.570314,73.7811173 L110.909691,73.7811173 L110.909691,65.5624045 C110.909691,64.5758193 110.467087,63.6979114 109.226766,63.6979114 C107.543841,63.6979114 106.813029,64.7286466 106.813029,66.4606894 L106.813029,73.7811173 L105.152406,73.7811173 L105.152406,65.6269316 C105.152406,64.6624215 104.665199,63.6979114 103.514085,63.6979114 C101.786556,63.6979114 101.078047,64.7065716 101.078047,66.4827645 L101.078047,73.7811173 L99.3951218,73.7811173 L99.3951218,62.2307692 L101.078047,62.2307692 L101.078047,63.1511292 C101.699065,62.4056716 102.716368,62.0762438 103.64618,62.0762438 C104.864199,62.0762438 105.661916,62.6688742 106.126822,63.5009339 C107.034332,62.3394464 108.296954,62.0762438 109.336559,62.0762438 C111.707408,62.0762438 112.570314,63.9186619 112.570314,65.4078791 L112.570314,73.7811173 Z M124.504156,68.5423671 L117.484249,68.5423671 L117.484249,69.836305 C117.484249,70.9757174 118.01606,72.3562574 120.163891,72.3562574 C121.670117,72.3562574 122.644533,71.5021226 122.798929,70.0112073 L124.481854,70.0112073 C124.282854,72.4445576 122.599929,74 120.163891,74 C117.528852,74 115.801324,72.4004075 115.801324,69.836305 L115.801324,66.2193921 C115.801324,63.6994396 117.573456,62.076074 120.163891,62.076074 C122.776628,62.076074 124.504156,63.6552895 124.504156,66.2193921 L124.504156,68.5423671 Z M130.991223,63.9178129 C130.106014,63.9178129 128.932599,64.5749703 128.932599,66.4598404 L128.932599,73.7802683 L127.271976,73.7802683 L127.271976,62.2740703 L128.932599,62.2740703 L128.932599,63.3268806 C129.484996,62.6459501 130.349618,62.2740703 131.013524,62.2740703 L131.943336,62.2740703 L131.943336,63.9178129 L130.991223,63.9178129 Z M134.599132,62.2519952 L136.259756,62.2519952 L136.259756,73.7802683 L134.599132,73.7802683 L134.599132,62.2519952 Z M134.400132,58 L136.43817,58 L136.43817,60.3671251 L134.400132,60.3671251 L134.400132,58 Z M147.99597,66.0877908 L146.313045,66.0877908 C146.225553,64.9483783 145.582233,63.6985906 143.678006,63.6985906 C142.017383,63.6985906 140.998364,64.6189506 140.998364,66.218543 L140.998364,69.8354559 C140.998364,70.9748684 141.530176,72.3571065 143.678006,72.3571065 C145.184233,72.3571065 146.158648,71.5012736 146.313045,70.0103583 L147.99597,70.0103583 C147.796969,72.4437086 146.114044,73.999151 143.678006,73.999151 C141.042968,73.999151 139.315439,72.3995585 139.315439,69.8354559 L139.315439,66.218543 C139.315439,63.6985906 141.087571,62.0769231 143.678006,62.0769231 C146.179234,62.0769231 147.841573,63.5899134 147.99597,66.0877908 Z M159,73.7812871 L157.317075,73.7812871 L157.317075,72.6843267 C156.807566,73.4297843 155.544943,73.9782646 154.239433,73.9782646 C152.335206,73.9782646 150.364073,72.8609272 150.364073,70.2305994 C150.364073,68.0825267 151.957791,66.9651893 154.08332,66.9651893 L157.317075,66.9651893 L157.317075,65.8682289 C157.317075,64.1803362 156.298056,63.6980812 154.92564,63.6980812 C153.663018,63.6980812 152.534206,64.2465614 152.467301,65.8240788 L150.806677,65.8240788 C150.895884,63.0850739 153.153508,62.0764137 154.903339,62.0764137 C156.896773,62.0764137 159,63.0409238 159,65.8020037 L159,73.7812871 Z" id="Fill-139" sketch:type="MSShapeGroup"></path>
            <path d="M95.0380588,19 C88.8655181,19.0173632 86,23.4276135 86,27.1676446 L86,39.8288828 C86,43.5741229 88.8655181,47.9826368 95.0380588,48 C101.208895,47.9826368 104.076118,43.5741229 104.076118,39.8288828 L104.076118,27.1676446 C104.076118,23.4276135 101.208895,19.0173632 95.0380588,19 Z M153.804022,28.2422524 L156.03541,37.0436535 L151.533427,37.0436535 L153.804022,28.2422524 Z M98.4916815,39.3930667 C98.4916815,41.5565202 96.3148423,42.2892468 95.0380588,42.2892468 C93.7612753,42.2892468 91.5827316,41.5565202 91.5827316,39.3930667 L91.5827316,27.6069333 C91.5827316,25.4417435 93.7612753,24.7107532 95.0380588,24.7107532 C96.3148423,24.7107532 98.4916815,25.4417435 98.4916815,27.6069333 L98.4916815,39.3930667 Z M134.645962,47.4824033 L134.645962,36.458514 L142.985114,36.458514 L142.985114,30.8085319 L134.685169,30.8085319 L134.685169,25.1984852 L144.348835,25.1984852 L144.348835,19.5137768 L129.076868,19.5137768 L129.076868,47.4824033 L134.645962,47.4824033 Z M119.117786,33.4786433 L126.22618,19.5134295 L119.777486,19.5134295 L115.887473,27.6567657 L111.99746,19.5134295 L105.548766,19.5134295 L112.65716,33.4786433 L105.509559,47.482056 L112.033257,47.482056 L115.887473,39.3578194 L119.741689,47.482056 L126.265387,47.482056 L119.117786,33.4786433 Z M182.202482,19.5130823 L177.287974,30.2730511 L172.306984,19.5130823 L166.589585,19.5130823 L166.589585,47.4834451 L172.046173,47.4834451 L172.046173,31.5718177 L175.552639,39.0119447 L179.035241,39.0119447 L182.541708,31.5961262 L182.541708,47.4834451 L188,47.4834451 L188,19.5130823 L182.202482,19.5130823 Z M158.681028,47.4824033 L164.246713,47.4824033 L156.967854,19.5137768 L150.456088,19.5137768 L143.29144,47.4824033 L148.8844,47.4824033 L150.162888,42.5286852 L157.429814,42.5286852 L158.681028,47.4824033 Z" id="Fill-151" sketch:type="MSShapeGroup"></path>
        </g>
    </g>
</svg>